<svg width="32" height="32" viewBox="0 0 32 32" fill="none" xmlns="http://www.w3.org/2000/svg">
    <path d="M29.4086 8.59399H2.59194C1.16031 8.59399 0 9.75481 0 11.186V14.7358L13.2192 17.5237V15.7562H18.7049V17.5237L32 14.7181V11.186C32 9.75481 30.8397 8.59399 29.4086 8.59399Z" fill="#56B8FF"/>
    <path d="M18.7049 23.0706H13.2192V19.507L0.914566 17.0632V27.4881C0.914566 28.9192 2.07438 30.08 3.5055 30.08H28.4945C29.9256 30.08 31.0859 28.9192 31.0859 27.4881V17.0451L18.7049 19.5069V23.0706Z" fill="#56B8FF"/>
    <path d="M17.3334 17.1277H14.5907V21.6985H17.3334V17.1277Z" fill="#56B8FF"/>
    <path d="M12.1116 4.51288C12.1121 4.40644 12.1515 4.32181 12.221 4.24988C12.2914 4.18094 12.3766 4.1425 12.482 4.1415H19.5181C19.6234 4.1425 19.7092 4.18094 19.7796 4.24988C19.8486 4.32181 19.8875 4.40644 19.8879 4.51288V6.36456H22.1096V4.51288C22.1101 3.79975 21.818 3.14569 21.3506 2.67981C20.8852 2.212 20.2297 1.91944 19.5181 1.91994H12.482C11.7699 1.91944 11.1148 2.212 10.6495 2.67981C10.1826 3.14569 9.88962 3.79969 9.89106 4.51288V6.36456H12.1116V4.51288Z" fill="#56B8FF"/>
</svg>
