<svg width="32" height="32" viewBox="0 0 32 32" fill="none" xmlns="http://www.w3.org/2000/svg">
    <path d="M29.4086 8.59375H2.59194C1.16031 8.59375 0 9.75456 0 11.1858V14.7356L13.2192 17.5235V15.756H18.7049V17.5235L32 14.7178V11.1858C32 9.75456 30.8397 8.59375 29.4086 8.59375Z" fill="#A3B3CC"/>
    <path d="M18.7049 23.0704H13.2192V19.5069L0.914551 17.0631V27.488C0.914551 28.9191 2.07436 30.0799 3.50549 30.0799H28.4945C29.9256 30.0799 31.0859 28.9191 31.0859 27.488V17.0449L18.7049 19.5068V23.0704Z" fill="#A3B3CC"/>
    <path d="M17.3334 17.1279H14.5908V21.6987H17.3334V17.1279Z" fill="#A3B3CC"/>
    <path d="M12.1116 4.51286C12.1121 4.40642 12.1515 4.3218 12.221 4.24986C12.2914 4.18092 12.3766 4.14248 12.482 4.14148H19.5181C19.6234 4.14248 19.7092 4.18092 19.7796 4.24986C19.8486 4.3218 19.8875 4.40642 19.8879 4.51286V6.36455H22.1096V4.51286C22.1101 3.79974 21.818 3.14567 21.3506 2.6798C20.8852 2.21198 20.2297 1.91942 19.5181 1.91992H12.482C11.7699 1.91942 11.1148 2.21198 10.6495 2.6798C10.1826 3.14567 9.88962 3.79967 9.89106 4.51286V6.36455H12.1116V4.51286Z" fill="#A3B3CC"/>
</svg>
