<svg width="32" height="32" viewBox="0 0 32 32" fill="none" xmlns="http://www.w3.org/2000/svg">
    <path d="M22.4415 20.8535C23.3348 20.2669 24.5082 20.9069 24.5082 21.9735V23.6935C24.5082 25.3869 23.1882 27.2002 21.6015 27.7335L17.3482 29.1469C16.6015 29.4002 15.3882 29.4002 14.6548 29.1469L10.4015 27.7335C8.80148 27.2002 7.49481 25.3869 7.49481 23.6935V21.9602C7.49481 20.9069 8.66815 20.2669 9.54815 20.8402L12.2948 22.6269C13.3482 23.3335 14.6815 23.6802 16.0148 23.6802C17.3482 23.6802 18.6815 23.3335 19.7348 22.6269L22.4415 20.8535Z" fill="#A3B3CC"/>
    <path d="M26.6393 8.61162L18.6526 3.37162C17.2126 2.42495 14.8393 2.42495 13.3993 3.37162L5.37269 8.61162C2.79935 10.2783 2.79935 14.0516 5.37269 15.7316L7.50602 17.1183L13.3993 20.9583C14.8393 21.905 17.2126 21.905 18.6526 20.9583L24.506 17.1183L26.3326 15.9183V19.9983C26.3326 20.545 26.786 20.9983 27.3326 20.9983C27.8793 20.9983 28.3326 20.545 28.3326 19.9983V13.4383C28.866 11.7183 28.3193 9.71829 26.6393 8.61162Z" fill="#A3B3CC"/>
</svg>
