<svg width="32" height="32" viewBox="0 0 32 32" fill="none" xmlns="http://www.w3.org/2000/svg">
    <path d="M22.4415 20.8536C23.3348 20.2669 24.5081 20.9069 24.5081 21.9736V23.6936C24.5081 25.3869 23.1881 27.2003 21.6015 27.7336L17.3481 29.1469C16.6015 29.4003 15.3881 29.4003 14.6548 29.1469L10.4015 27.7336C8.80146 27.2003 7.49479 25.3869 7.49479 23.6936V21.9603C7.49479 20.9069 8.66812 20.2669 9.54812 20.8403L12.2948 22.6269C13.3481 23.3336 14.6815 23.6803 16.0148 23.6803C17.3481 23.6803 18.6815 23.3336 19.7348 22.6269L22.4415 20.8536Z" fill="#56B8FF"/>
    <path d="M26.6393 8.61147L18.6527 3.37147C17.2127 2.4248 14.8393 2.4248 13.3993 3.37147L5.37271 8.61147C2.79938 10.2781 2.79938 14.0515 5.37271 15.7315L7.50604 17.1181L13.3993 20.9581C14.8393 21.9048 17.2127 21.9048 18.6527 20.9581L24.506 17.1181L26.3327 15.9181V19.9981C26.3327 20.5448 26.786 20.9981 27.3327 20.9981C27.8793 20.9981 28.3327 20.5448 28.3327 19.9981V13.4381C28.866 11.7181 28.3193 9.71813 26.6393 8.61147Z" fill="#56B8FF"/>
</svg>
