<svg width="32" height="32" viewBox="0 0 32 32" fill="none" xmlns="http://www.w3.org/2000/svg">
<g clip-path="url(#clip0_63_771)">
<path d="M13.04 12.7111C15.9855 12.7111 18.3733 10.3233 18.3733 7.37777C18.3733 4.43225 15.9855 2.04443 13.04 2.04443C10.0945 2.04443 7.70667 4.43225 7.70667 7.37777C7.70667 10.3233 10.0945 12.7111 13.04 12.7111Z" fill="#56B8FF"/>
<path d="M14.6133 28.2844C14.3196 27.9939 14.1279 27.616 14.067 27.2073C14.0061 26.7987 14.0793 26.3813 14.2756 26.0178L14.7467 25.1289L13.7778 24.8355C13.3827 24.7119 13.0387 24.4627 12.7981 24.1258C12.5574 23.7889 12.4333 23.3827 12.4444 22.9689V21.1467C12.4437 20.7346 12.5755 20.3333 12.8204 20.0019C13.0653 19.6706 13.4103 19.4268 13.8044 19.3067L14.7733 19.0133L14.3111 18.1244C14.1206 17.7658 14.0481 17.3563 14.104 16.9541C14.1598 16.5518 14.3412 16.1775 14.6222 15.8844C13.9384 15.7948 13.2497 15.7473 12.56 15.7422C10.523 15.6943 8.50042 16.0964 6.63666 16.92C4.7729 17.7435 3.11382 18.9682 1.77778 20.5067V27.3955C1.77778 27.6313 1.87143 27.8574 2.03813 28.0241C2.20483 28.1908 2.43092 28.2844 2.66667 28.2844H14.6133Z" fill="#56B8FF"/>
<path d="M29.9556 20.8533L28.1778 20.32C28.0546 19.881 27.8816 19.4575 27.6622 19.0578L28.5511 17.4044C28.5855 17.3431 28.598 17.2719 28.5867 17.2025C28.5754 17.1331 28.5409 17.0695 28.4889 17.0222L27.2 15.7244C27.1504 15.6761 27.0871 15.6442 27.0187 15.6331C26.9503 15.622 26.8802 15.6321 26.8178 15.6622L25.1733 16.5511C24.7686 16.3312 24.3427 16.1525 23.9022 16.0178L23.36 14.24C23.3361 14.1744 23.2926 14.1179 23.2353 14.0781C23.178 14.0383 23.1098 14.0172 23.04 14.0178H21.1911C21.1218 14.0197 21.0548 14.0429 20.9991 14.0843C20.9435 14.1256 20.9019 14.1831 20.88 14.2489L20.3467 16.0267C19.8976 16.1573 19.4652 16.3392 19.0578 16.5689L17.4489 15.68C17.3863 15.6467 17.3149 15.634 17.2447 15.6436C17.1745 15.6532 17.1091 15.6845 17.0578 15.7333L15.7511 17.0133C15.6997 17.0629 15.6658 17.1279 15.6545 17.1985C15.6433 17.269 15.6554 17.3413 15.6889 17.4044L16.5778 19.0222C16.3397 19.4237 16.1459 19.8499 16 20.2933L14.2222 20.8355C14.155 20.855 14.096 20.8959 14.0542 20.9521C14.0125 21.0083 13.9903 21.0767 13.9911 21.1467V22.9689C13.9903 23.0389 14.0125 23.1072 14.0542 23.1634C14.096 23.2196 14.155 23.2606 14.2222 23.28L16 23.8222C16.1333 24.2576 16.312 24.6777 16.5333 25.0755L15.6444 26.7644C15.6109 26.8275 15.5989 26.8998 15.6101 26.9704C15.6213 27.041 15.6552 27.106 15.7067 27.1555L17.0311 28.4444C17.0825 28.4932 17.1479 28.5246 17.2181 28.5342C17.2883 28.5437 17.3597 28.531 17.4222 28.4978L19.0844 27.6089C19.48 27.8216 19.8972 27.9915 20.3289 28.1155L20.8622 29.9378C20.8846 30.005 20.9275 30.0635 20.9849 30.1049C21.0424 30.1464 21.1114 30.1688 21.1822 30.1689H23.0044C23.0737 30.1669 23.1408 30.1437 23.1964 30.1024C23.2521 30.061 23.2937 30.0036 23.3156 29.9378L23.8489 28.1155C24.2754 27.993 24.6869 27.8231 25.0756 27.6089L26.7556 28.4978C26.8181 28.531 26.8895 28.5437 26.9597 28.5342C27.0299 28.5246 27.0953 28.4932 27.1467 28.4444L28.4444 27.1555C28.4932 27.1042 28.5246 27.0388 28.5342 26.9686C28.5438 26.8984 28.531 26.827 28.4978 26.7644L27.6089 25.0933C27.8215 24.7039 27.9914 24.2926 28.1156 23.8667L29.8933 23.3244C29.9601 23.303 30.0188 23.2617 30.0617 23.2062C30.1045 23.1506 30.1295 23.0834 30.1333 23.0133V21.1733C30.1355 21.1089 30.1201 21.0451 30.0888 20.9887C30.0575 20.9323 30.0114 20.8855 29.9556 20.8533ZM22.1067 25.0489C21.5191 25.0506 20.9442 24.878 20.4548 24.5529C19.9654 24.2277 19.5835 23.7646 19.3574 23.2223C19.1314 22.68 19.0713 22.0828 19.1849 21.5063C19.2984 20.9298 19.5805 20.3999 19.9953 19.9838C20.4102 19.5677 20.9391 19.2841 21.5153 19.1688C22.0914 19.0535 22.6888 19.1118 23.2319 19.3363C23.7749 19.5607 24.2391 19.9412 24.5657 20.4296C24.8923 20.9181 25.0667 21.4924 25.0667 22.08C25.0667 22.8659 24.7551 23.6197 24.2002 24.1762C23.6454 24.7327 22.8925 25.0465 22.1067 25.0489Z" fill="#56B8FF"/>
</g>
<defs>
<clipPath id="clip0_63_771">
<rect width="32" height="32" fill="white"/>
</clipPath>
</defs>
</svg>
