<svg width="24" height="24" viewBox="0 0 24 24" fill="none" xmlns="http://www.w3.org/2000/svg">
    <path d="M16.0078 4.20312L19.1719 7.36719C19.3125 7.50781 19.3125 7.71875 19.1719 7.85938L11.5078 15.5234L8.23828 15.875C7.81641 15.9453 7.42969 15.5586 7.5 15.1367L7.85156 11.8672L15.5156 4.20312C15.6562 4.0625 15.8672 4.0625 16.0078 4.20312ZM21.7031 3.39453C22.2305 3.92188 22.2305 4.80078 21.7031 5.32812L20.4727 6.55859C20.332 6.69922 20.1211 6.69922 19.9805 6.55859L16.8164 3.39453C16.6758 3.25391 16.6758 3.04297 16.8164 2.90234L18.0469 1.67188C18.5742 1.14453 19.4531 1.14453 19.9805 1.67188L21.7031 3.39453ZM15.375 13.4492C15.375 13.3086 15.4102 13.2031 15.4805 13.1328L16.8867 11.7266C17.168 11.4805 17.625 11.6562 17.625 12.043V17.5625C17.625 18.5117 16.8516 19.25 15.9375 19.25H3.5625C2.61328 19.25 1.875 18.5117 1.875 17.5625V5.1875C1.875 4.27344 2.61328 3.5 3.5625 3.5H13.582C13.9688 3.5 14.1445 3.95703 13.8984 4.23828L12.4922 5.64453C12.4219 5.71484 12.3164 5.75 12.1758 5.75H4.125V17H15.375V13.4492Z" fill="#757575"/>
</svg>
