<svg width="32" height="32" viewBox="0 0 32 32" fill="none" xmlns="http://www.w3.org/2000/svg">
    <g clip-path="url(#clip0_63_767)">
        <path fill-rule="evenodd" clip-rule="evenodd" d="M8 10.6667C8 6.24838 11.5817 2.66666 16 2.66666C20.4183 2.66666 24 6.24838 24 10.6667C24 15.0849 20.4183 18.6667 16 18.6667C11.5817 18.6667 8 15.0849 8 10.6667Z" fill="#A3B3CC"/>
        <path fill-rule="evenodd" clip-rule="evenodd" d="M7.24125 22.5367C9.40783 21.6284 12.2977 21.3333 16 21.3333C19.6947 21.3333 22.5801 21.6272 24.7448 22.5308C27.0683 23.5007 28.4944 25.1484 29.2547 27.5449C29.5371 28.4356 28.8691 29.3333 27.9456 29.3333H4.04612C3.12643 29.3333 2.46239 28.4396 2.74253 27.5539C3.50049 25.1575 4.92159 23.5091 7.24125 22.5367Z" fill="#A3B3CC"/>
    </g>
    <defs>
        <clipPath id="clip0_63_767">
            <rect width="32" height="32" fill="white"/>
        </clipPath>
    </defs>
</svg>
