<svg width="32" height="32" viewBox="0 0 32 32" fill="none" xmlns="http://www.w3.org/2000/svg">
    <g clip-path="url(#clip0_3062_3142)">
        <path fill-rule="evenodd" clip-rule="evenodd" d="M8 10.6665C8 6.24822 11.5817 2.6665 16 2.6665C20.4183 2.6665 24 6.24822 24 10.6665C24 15.0848 20.4183 18.6665 16 18.6665C11.5817 18.6665 8 15.0848 8 10.6665Z" fill="#56B8FF"/>
        <path fill-rule="evenodd" clip-rule="evenodd" d="M7.24125 22.5368C9.40782 21.6286 12.2977 21.3335 16 21.3335C19.6947 21.3335 22.5801 21.6274 24.7448 22.531C27.0683 23.5008 28.4944 25.1486 29.2547 27.5451C29.5371 28.4358 28.8691 29.3335 27.9456 29.3335H4.04612C3.12642 29.3335 2.46238 28.4398 2.74253 27.554C3.50049 25.1576 4.92158 23.5092 7.24125 22.5368Z" fill="#56B8FF"/>
    </g>
    <defs>
        <clipPath id="clip0_3062_3142">
            <rect width="32" height="32" fill="white"/>
        </clipPath>
    </defs>
</svg>
